<mxfile host="app.diagrams.net" modified="2021-06-20T08:52:59.790Z" agent="5.0 (Windows NT 6.3; Win64; x64) AppleWebKit/537.36 (KHTML, like Gecko) Chrome/91.0.4472.106 Safari/537.36" etag="owim0OPOj4y-q8ggcU9q" version="14.8.0" type="github">
  <diagram id="5menBW_RQm2uAkVXJpBG" name="Page-1">
    <mxGraphModel dx="1718" dy="450" grid="1" gridSize="10" guides="1" tooltips="1" connect="1" arrows="1" fold="1" page="1" pageScale="1" pageWidth="850" pageHeight="1100" math="0" shadow="0">
      <root>
        <mxCell id="0" />
        <mxCell id="1" parent="0" />
        <mxCell id="0iY-wVWfivXx45j8-ize-17" value="No" style="edgeStyle=orthogonalEdgeStyle;rounded=0;orthogonalLoop=1;jettySize=auto;html=1;" parent="1" source="0iY-wVWfivXx45j8-ize-15" target="0iY-wVWfivXx45j8-ize-16" edge="1">
          <mxGeometry relative="1" as="geometry" />
        </mxCell>
        <mxCell id="0iY-wVWfivXx45j8-ize-19" value="Yes" style="edgeStyle=orthogonalEdgeStyle;rounded=0;orthogonalLoop=1;jettySize=auto;html=1;" parent="1" source="0iY-wVWfivXx45j8-ize-15" target="0iY-wVWfivXx45j8-ize-18" edge="1">
          <mxGeometry relative="1" as="geometry" />
        </mxCell>
        <mxCell id="0iY-wVWfivXx45j8-ize-15" value="evenly divisible by 4" style="rounded=1;whiteSpace=wrap;html=1;" parent="1" vertex="1">
          <mxGeometry x="-760" y="70" width="130" height="70" as="geometry" />
        </mxCell>
        <mxCell id="0iY-wVWfivXx45j8-ize-16" value="&lt;span&gt;Not a leap year&lt;/span&gt;" style="whiteSpace=wrap;html=1;rounded=1;" parent="1" vertex="1">
          <mxGeometry x="-545" y="75" width="120" height="60" as="geometry" />
        </mxCell>
        <mxCell id="0iY-wVWfivXx45j8-ize-18" value="&lt;span&gt;evenly divisible by 100&lt;/span&gt;" style="whiteSpace=wrap;html=1;rounded=1;" parent="1" vertex="1">
          <mxGeometry x="-755" y="225" width="120" height="60" as="geometry" />
        </mxCell>
        <mxCell id="0iY-wVWfivXx45j8-ize-20" value="No" style="edgeStyle=orthogonalEdgeStyle;rounded=0;orthogonalLoop=1;jettySize=auto;html=1;" parent="1" target="0iY-wVWfivXx45j8-ize-21" edge="1">
          <mxGeometry relative="1" as="geometry">
            <mxPoint x="-635" y="255" as="sourcePoint" />
          </mxGeometry>
        </mxCell>
        <mxCell id="0iY-wVWfivXx45j8-ize-21" value="A leap year" style="whiteSpace=wrap;html=1;rounded=1;" parent="1" vertex="1">
          <mxGeometry x="-555" y="225" width="120" height="60" as="geometry" />
        </mxCell>
        <mxCell id="0iY-wVWfivXx45j8-ize-22" value="Yes" style="edgeStyle=orthogonalEdgeStyle;rounded=0;orthogonalLoop=1;jettySize=auto;html=1;" parent="1" target="0iY-wVWfivXx45j8-ize-23" edge="1">
          <mxGeometry relative="1" as="geometry">
            <mxPoint x="-695" y="285" as="sourcePoint" />
          </mxGeometry>
        </mxCell>
        <mxCell id="0iY-wVWfivXx45j8-ize-25" value="" style="edgeStyle=orthogonalEdgeStyle;rounded=0;orthogonalLoop=1;jettySize=auto;html=1;" parent="1" source="0iY-wVWfivXx45j8-ize-23" target="0iY-wVWfivXx45j8-ize-24" edge="1">
          <mxGeometry relative="1" as="geometry" />
        </mxCell>
        <mxCell id="0iY-wVWfivXx45j8-ize-26" value="No" style="edgeStyle=orthogonalEdgeStyle;rounded=0;orthogonalLoop=1;jettySize=auto;html=1;" parent="1" source="0iY-wVWfivXx45j8-ize-23" target="0iY-wVWfivXx45j8-ize-24" edge="1">
          <mxGeometry relative="1" as="geometry" />
        </mxCell>
        <mxCell id="0iY-wVWfivXx45j8-ize-28" value="Yes" style="edgeStyle=orthogonalEdgeStyle;rounded=0;orthogonalLoop=1;jettySize=auto;html=1;" parent="1" source="0iY-wVWfivXx45j8-ize-23" target="0iY-wVWfivXx45j8-ize-27" edge="1">
          <mxGeometry relative="1" as="geometry">
            <Array as="points">
              <mxPoint x="-695" y="460" />
              <mxPoint x="-695" y="460" />
            </Array>
          </mxGeometry>
        </mxCell>
        <mxCell id="0iY-wVWfivXx45j8-ize-23" value="evenly divisible by 400" style="whiteSpace=wrap;html=1;rounded=1;" parent="1" vertex="1">
          <mxGeometry x="-755" y="365" width="120" height="60" as="geometry" />
        </mxCell>
        <mxCell id="0iY-wVWfivXx45j8-ize-24" value="Not a leap year" style="whiteSpace=wrap;html=1;rounded=1;" parent="1" vertex="1">
          <mxGeometry x="-555" y="365" width="120" height="60" as="geometry" />
        </mxCell>
        <mxCell id="0iY-wVWfivXx45j8-ize-27" value="A leap year" style="whiteSpace=wrap;html=1;rounded=1;" parent="1" vertex="1">
          <mxGeometry x="-750" y="500" width="120" height="60" as="geometry" />
        </mxCell>
      </root>
    </mxGraphModel>
  </diagram>
</mxfile>
